<svg width="579" height="534" viewBox="0 0 579 534" fill="none" xmlns="http://www.w3.org/2000/svg">
<g id="Wallet is Empty">
<path id="Fill 1" fill-rule="evenodd" clip-rule="evenodd" d="M389.81 513.815C389.81 517.611 340.956 520.689 280.69 520.689C220.424 520.689 171.567 517.611 171.567 513.815C171.567 510.02 220.424 506.942 280.69 506.942C340.956 506.942 389.81 510.02 389.81 513.815Z" fill="#DCDCE2"/>
<path id="Stroke 3" d="M266.906 72.1745C207.379 77.2136 185.5 127.6 203.423 156.97C216.07 177.693 237.501 205.699 277.449 198.981C317.396 192.262 320.762 155.292 299.724 150.263C278.685 145.236 203.736 168.689 212.207 222.871C218.321 261.964 271.32 273.233 271.32 273.233" stroke="#DCDCE2" stroke-width="1.18395" stroke-dasharray="4.14"/>
<path id="Fill 5" fill-rule="evenodd" clip-rule="evenodd" d="M301.312 41.2427C301.312 41.2427 309.841 18.9606 310.741 10.2926C311.214 5.76336 303.708 -6.84716 294.924 4.81757C286.139 16.4823 290.147 30.7847 301.312 41.2427Z" fill="#DCDCE2"/>
<path id="Fill 7" fill-rule="evenodd" clip-rule="evenodd" d="M271.044 16.9764C261.051 13.5971 256.528 16.2319 254.601 21.4909C252.672 26.7516 255.364 36.765 270.436 39.0477C285.509 41.3303 300.451 41.2427 300.451 41.2427C300.451 41.2427 281.037 20.3557 271.044 16.9764Z" fill="#DCDCE2"/>
<path id="Fill 9" fill-rule="evenodd" clip-rule="evenodd" d="M299.619 45.6577C299.846 44.7263 300.146 43.8336 300.48 42.9611C298.636 43.2525 296.758 43.6618 294.869 44.2159C292.82 44.8156 290.907 45.6021 289.108 46.5032C288.327 47.9787 287.695 49.5552 287.284 51.248C284.752 61.6688 290.73 72.1722 300.774 75.6116C301.861 75.396 302.954 75.1467 304.049 74.8267C307.108 73.9307 309.929 72.7449 312.48 71.3705C302.671 67.0671 297.026 56.3279 299.619 45.6577Z" fill="#DCDCE2"/>
<path id="Fill 11" fill-rule="evenodd" clip-rule="evenodd" d="M285.278 51.0921C285.518 50.0627 285.843 49.0783 286.204 48.1164C277.515 53.6832 272.649 62.3228 273.451 67.361C267.898 69.7476 264.362 71.758 264.362 71.758C264.362 71.758 268.551 71.4391 274.656 70.2658C277.926 75.044 286.99 78.2434 297.012 77.096C287.933 72.401 282.809 61.7162 285.278 51.0921Z" fill="#DCDCE2"/>
<path id="Fill 13" fill-rule="evenodd" clip-rule="evenodd" d="M313.787 55.1104C311.639 54.593 310.308 52.4271 310.825 50.258C311.34 48.1038 313.511 46.7688 315.657 47.2862C317.815 47.8069 319.133 49.9811 318.619 52.1369C318.1 54.3044 315.946 55.6294 313.787 55.1104ZM303.751 43.1803C303.324 44.1745 302.96 45.2234 302.7 46.3097C300.422 55.8338 305.684 65.414 314.607 68.737C322.054 64.0842 326.235 57.496 324.538 51.7757C322.652 45.3592 313.981 42.0455 303.751 43.1803Z" fill="#DCDCE2"/>
<path id="Fill 15" fill-rule="evenodd" clip-rule="evenodd" d="M178.018 445.077H392.013C397.438 445.077 401.838 440.667 401.838 435.228V291.697C401.838 286.244 397.428 281.825 391.99 281.825H172.826C170.231 281.825 168.129 283.932 168.129 286.533V435.164C168.129 440.639 172.555 445.077 178.018 445.077Z" fill="#F1F2F7"/>
<path id="Fill 17" fill-rule="evenodd" clip-rule="evenodd" d="M177.887 443.36H203.854C204.054 443.36 204.217 443.197 204.217 442.997V261.567C204.217 261.367 204.054 261.204 203.854 261.204H177.887C172.496 261.204 168.129 265.558 168.129 270.933V433.631C168.129 439.004 172.496 443.36 177.887 443.36Z" fill="#BEC0D6"/>
<path id="Fill 19" fill-rule="evenodd" clip-rule="evenodd" d="M348.032 383.214H415.226C415.424 383.214 415.587 383.049 415.587 382.847V342.338C415.587 342.136 415.424 341.971 415.226 341.971H348.032C342.635 341.971 338.257 346.402 338.257 351.865V373.32C338.257 378.785 342.635 383.214 348.032 383.214Z" fill="#0856AF"/>
<path id="Fill 21" fill-rule="evenodd" clip-rule="evenodd" d="M362.819 261.204H178.122V261.228C172.585 261.362 168.129 265.904 168.129 271.516C168.129 277.127 172.585 281.67 178.122 281.803V281.826H373.978C374.179 281.826 374.343 281.663 374.343 281.46V272.814C374.343 266.402 369.182 261.204 362.819 261.204Z" fill="#D8DBEA"/>
<path id="Fill 23" fill-rule="evenodd" clip-rule="evenodd" d="M370.908 362.593C370.908 367.338 367.062 371.185 362.316 371.185C357.57 371.185 353.724 367.338 353.724 362.593C353.724 357.847 357.57 354 362.316 354C367.062 354 370.908 357.847 370.908 362.593Z" fill="#FEFEFF"/>
<path id="Stroke 25" d="M18.6262 319.631V324.786" stroke="#D2D8DF" stroke-width="1.72915" stroke-linecap="round"/>
<path id="Stroke 27" d="M8.31409 324.786L11.751 328.223" stroke="#D2D8DF" stroke-width="1.72915" stroke-linecap="round"/>
<path id="Stroke 29" d="M3.15967 335.097H8.31501" stroke="#D2D8DF" stroke-width="1.72915" stroke-linecap="round"/>
<path id="Stroke 31" d="M8.31409 345.408L11.751 341.971" stroke="#D2D8DF" stroke-width="1.72915" stroke-linecap="round"/>
<path id="Stroke 33" d="M18.6262 350.563V345.408" stroke="#D2D8DF" stroke-width="1.72915" stroke-linecap="round"/>
<path id="Stroke 35" d="M28.9376 345.408L25.5007 341.971" stroke="#D2D8DF" stroke-width="1.72915" stroke-linecap="round"/>
<path id="Stroke 37" d="M34.09 335.097H28.9347" stroke="#D2D8DF" stroke-width="1.72915" stroke-linecap="round"/>
<path id="Stroke 39" d="M28.9376 324.786L25.5007 328.223" stroke="#D2D8DF" stroke-width="1.72915" stroke-linecap="round"/>
<path id="Stroke 41" d="M283.266 108.262V111.699" stroke="#D2D8DF" stroke-width="1.72915" stroke-linecap="round"/>
<path id="Stroke 43" d="M274.674 116.854H278.111" stroke="#D2D8DF" stroke-width="1.72915" stroke-linecap="round"/>
<path id="Stroke 45" d="M283.266 127.165V123.728" stroke="#D2D8DF" stroke-width="1.72915" stroke-linecap="round"/>
<path id="Stroke 47" d="M293.577 118.573H290.141" stroke="#D2D8DF" stroke-width="1.72915" stroke-linecap="round"/>
<path id="Stroke 49" d="M94.2378 244.019V249.174" stroke="#D2D8DF" stroke-width="1.72915" stroke-linecap="round"/>
<path id="Stroke 51" d="M78.7716 259.485H83.9269" stroke="#D2D8DF" stroke-width="1.72915" stroke-linecap="round"/>
<path id="Stroke 53" d="M92.5173 273.233V268.078" stroke="#D2D8DF" stroke-width="1.72915" stroke-linecap="round"/>
<path id="Stroke 55" d="M107.985 259.485H102.829" stroke="#D2D8DF" stroke-width="1.72915" stroke-linecap="round"/>
<path id="Stroke 57" d="M444.801 424.456C448.596 424.456 451.674 427.534 451.674 431.331C451.674 435.126 448.596 438.204 444.801 438.204C441.005 438.204 437.927 435.126 437.927 431.331" stroke="#D2D8DF" stroke-width="1.72915" stroke-linecap="round"/>
<path id="Stroke 59" d="M477.335 518.181C478.212 524.318 473.971 530.006 467.864 530.885C461.761 531.765 456.1 527.503 455.225 521.367C454.35 515.228 458.59 509.54 464.696 508.661" stroke="#D2D8DF" stroke-width="1.72915" stroke-linecap="round"/>
<path id="Fill 61" fill-rule="evenodd" clip-rule="evenodd" d="M477.452 359.155C481.618 357.837 488.003 352.678 489.482 347.126C490.821 352.034 496.439 357.837 501.51 358.278C495.803 360.326 490.347 366.408 489.482 371.185C488.892 366.315 481.346 359.864 477.452 359.155Z" fill="#EBECEF"/>
<path id="Fill 63" fill-rule="evenodd" clip-rule="evenodd" d="M46.1217 421.878C48.2056 421.22 51.3977 418.64 52.1371 415.864C52.8068 418.317 55.6148 421.22 58.1508 421.441C55.297 422.464 52.5689 425.504 52.1371 427.894C51.8414 425.459 48.0696 422.233 46.1217 421.878Z" fill="#EBECEF"/>
<path id="Fill 65" fill-rule="evenodd" clip-rule="evenodd" d="M83.9279 194.184C83.9279 197.032 81.6192 199.339 78.7725 199.339C75.9242 199.339 73.6172 197.032 73.6172 194.184C73.6172 191.336 75.9242 189.029 78.7725 189.029C81.6192 189.029 83.9279 191.336 83.9279 194.184Z" fill="#D1D9E0"/>
<path id="Fill 69" fill-rule="evenodd" clip-rule="evenodd" d="M578.84 183.873C578.84 187.67 575.763 190.747 571.967 190.747C568.169 190.747 565.092 187.67 565.092 183.873C565.092 180.077 568.169 177 571.967 177C575.763 177 578.84 180.077 578.84 183.873Z" fill="#EBECEF"/>
<path id="Stroke 73" fill-rule="evenodd" clip-rule="evenodd" d="M183.598 158.097C183.598 160.945 181.289 163.252 178.442 163.252C175.594 163.252 173.287 160.945 173.287 158.097C173.287 155.249 175.594 152.942 178.442 152.942C181.289 152.942 183.598 155.249 183.598 158.097Z" stroke="#D2D8DF" stroke-width="1.72915" stroke-linecap="round"/>
<path id="Stroke 75" fill-rule="evenodd" clip-rule="evenodd" d="M103.555 484.151C100.008 485.501 96.039 483.719 94.6895 480.172C93.3382 476.625 95.1214 472.656 98.6687 471.306C102.216 469.955 106.185 471.738 107.534 475.286C108.884 478.833 107.102 482.802 103.555 484.151Z" stroke="#D2D8DF" stroke-width="1.72915" stroke-linecap="round"/>
</g>
</svg>
